<?xml version="1.0" standalone="no"?>
<!DOCTYPE svg PUBLIC "-//W3C//DTD SVG 20010904//EN"
 "http://www.w3.org/TR/2001/REC-SVG-20010904/DTD/svg10.dtd">
<svg version="1.0" xmlns="http://www.w3.org/2000/svg"
 width="460.000000pt" height="377.000000pt" viewBox="0 0 460.000000 377.000000"
 preserveAspectRatio="xMidYMid meet">
<metadata>
Created by potrace 1.16, written by Peter Selinger 2001-2019
</metadata>
<g transform="translate(0.000000,377.000000) scale(0.100000,-0.100000)"
fill="#000000" stroke="none">
<path d="M1765 3588 c-487 -49 -944 -314 -1228 -711 -213 -298 -327 -646 -327
-993 0 -211 26 -372 91 -569 201 -607 725 -1056 1354 -1160 418 -70 870 23
1217 250 146 96 318 241 318 270 0 5 -123 133 -274 284 l-273 273 -34 -29
c-220 -190 -549 -257 -826 -168 -122 39 -143 59 -29 28 92 -25 307 -23 407 5
263 71 477 274 567 537 11 33 23 72 27 88 5 27 6 27 85 27 44 0 82 5 85 10 11
18 17 193 8 235 l-9 40 -82 3 c-80 3 -82 3 -88 30 -49 222 -196 424 -394 542
-191 114 -395 137 -670 75 -14 -3 -5 4 20 15 177 83 440 89 637 15 77 -29 177
-86 243 -139 25 -20 50 -36 55 -36 6 0 132 122 280 270 231 231 268 273 259
288 -21 34 -188 174 -283 237 -341 226 -732 324 -1136 283z m741 -243 c195
-29 425 -115 584 -217 108 -70 125 -38 -179 -342 l-268 -268 -36 32 c-60 52
-193 127 -275 154 -234 77 -491 57 -701 -55 -71 -38 -156 -98 -149 -105 2 -2
44 17 93 41 133 66 224 88 375 89 101 0 140 -4 204 -22 305 -87 521 -320 590
-634 6 -28 7 -28 91 -28 l85 0 0 -107 c0 -60 -4 -113 -8 -120 -4 -7 -38 -13
-81 -15 -53 -2 -76 -7 -82 -18 -13 -22 -32 -74 -31 -82 2 -7 -18 -5 -33 3 -5
3 -32 5 -58 4 -27 0 -51 3 -54 8 -4 6 -1 7 7 2 8 -5 11 -4 7 2 -4 5 -25 9 -48
8 -39 -2 -41 -1 -35 24 4 14 9 71 12 126 5 77 3 115 -10 165 -59 228 -224 388
-448 435 -87 19 -134 19 -223 0 -246 -52 -447 -275 -456 -509 -2 -48 -4 -54
-18 -43 -10 8 -13 9 -8 0 4 -6 3 -15 -3 -18 -6 -4 -9 -1 -8 6 2 9 -10 13 -40
14 -23 0 -46 5 -50 11 -4 6 -27 11 -52 13 -25 1 -49 6 -54 11 -6 6 -15 5 -25
-3 -12 -9 -13 -9 -7 1 5 9 -3 12 -31 13 -21 1 -42 1 -47 0 -5 -1 -16 1 -25 5
-23 10 -40 13 -92 16 -26 2 -45 6 -43 10 2 4 -10 8 -28 10 -30 3 -33 7 -36 37
-2 19 4 80 13 135 54 323 228 635 472 849 235 205 511 329 828 370 78 10 288
5 381 -8z m-428 -940 c147 -35 278 -134 357 -270 72 -124 89 -307 42 -444 -76
-218 -269 -365 -497 -378 -295 -17 -540 187 -583 485 -38 269 149 543 415 608
72 17 190 17 266 -1z m-1402 -795 c61 -1 116 -5 122 -9 6 -3 22 -48 37 -99 58
-209 134 -365 254 -527 306 -411 812 -641 1315 -596 260 23 456 89 701 235 72
43 -110 -112 -210 -178 -224 -149 -429 -229 -701 -271 -150 -24 -466 -16 -603
14 -133 30 -313 92 -417 144 -449 226 -791 659 -893 1130 -12 53 -21 112 -21
130 l0 33 153 -2 c83 -1 202 -3 263 -4z"/>
<path d="M1591 2196 c-7 -8 -11 -22 -9 -30 3 -15 626 -696 637 -696 12 1 41
28 41 38 0 15 -627 696 -644 700 -7 2 -18 -4 -25 -12z m340 -337 c173 -188
315 -345 317 -349 2 -5 -5 -13 -15 -18 -15 -8 -61 37 -303 300 -353 383 -346
374 -330 393 7 8 13 15 15 15 1 0 143 -154 316 -341z"/>
<path d="M1525 2096 c-15 -25 -25 -50 -23 -56 1 -5 133 -151 292 -324 l289
-314 43 15 c23 8 48 20 54 28 9 10 -56 86 -300 352 -171 186 -314 339 -319
341 -5 2 -21 -17 -36 -42z m341 -302 c164 -179 301 -330 302 -335 4 -9 -56
-39 -77 -39 -5 0 -138 139 -295 310 -217 236 -284 314 -279 327 10 27 34 63
43 63 4 0 141 -147 306 -326z"/>
<path d="M1475 1958 c-3 -18 -5 -67 -3 -108 l4 -75 2 92 c1 50 6 94 10 97 8 5
513 -535 521 -557 2 -6 -30 -8 -91 -5 -83 4 -104 10 -171 42 -120 58 -209 160
-254 291 -12 36 -13 37 -8 7 16 -107 136 -253 255 -310 36 -17 96 -36 133 -42
66 -12 157 -6 157 9 0 10 -517 573 -535 584 -10 5 -16 -1 -20 -25z"/>
<path d="M4005 2060 c-82 -5 -298 -16 -480 -24 -181 -9 -373 -19 -425 -22
l-95 -6 0 -142 -1 -143 111 -6 c60 -4 274 -16 475 -27 201 -12 428 -25 505
-29 151 -8 203 -2 251 31 120 82 118 256 -3 342 -50 35 -105 39 -338 26z
m-575 -189 l0 -138 -27 -6 c-21 -4 -388 8 -388 12 0 1 0 58 1 128 l1 128 124
5 c68 3 161 7 207 8 l82 2 0 -139z"/>
</g>
</svg>
